<?xml version="1.0" encoding="utf-8"?>
<!-- Svg Vector Icons : http://www.onlinewebfonts.com/icon -->
<!DOCTYPE svg PUBLIC "-//W3C//DTD SVG 1.1//EN" "http://www.w3.org/Graphics/SVG/1.1/DTD/svg11.dtd">
<svg version="1.1" xmlns="http://www.w3.org/2000/svg" xmlns:xlink="http://www.w3.org/1999/xlink" x="0px" y="0px" viewBox="0 0 256 256" enable-background="new 0 0 256 256" xml:space="preserve">
<metadata> Svg Vector Icons : http://www.onlinewebfonts.com/icon </metadata>
<g> <path fill="#000000" d="M223.9,201.8H32.1c-12.2,0-22.1-9.9-22.1-22.1V46.9c0-12.2,9.9-22.1,22.1-22.1h191.8 c12.2,0,22.1,9.9,22.1,22.1v132.8C246,191.8,236.1,201.8,223.9,201.8z M32.1,39.5c-4.1,0-7.4,3.3-7.4,7.4v132.8 c0,4.1,3.3,7.4,7.4,7.4h191.8c4.1,0,7.4-3.3,7.4-7.4V46.9c0-4.1-3.3-7.4-7.4-7.4H32.1z M54.3,216.5h147.5v14.8H54.3V216.5z  M112.5,85c-7.9-4.2-14-1-14,7.1v42.7c0,8.1,6,11.3,13.9,7l38.5-20.8c7.9-4.2,8-11.2,0.1-15.4L112.5,85z"/></g>
</svg>