<?xml version="1.0" encoding="UTF-8"?> <!-- Generator: Adobe Illustrator 25.1.0, SVG Export Plug-In . SVG Version: 6.00 Build 0) --> <svg xmlns="http://www.w3.org/2000/svg" xmlns:xlink="http://www.w3.org/1999/xlink" version="1.0" id="Layer_1" x="0px" y="0px" width="512px" height="512px" viewBox="0 0 512 512" style="enable-background:new 0 0 512 512;" xml:space="preserve"> <g> <g> <g> <path d="M480.48,111.29h-12.74c0-23.84,0-18.69,0-42.67c0-4.41-3.58-7.99-7.99-7.99h-21.83c-4.41,0-7.99,3.58-7.99,7.99 c0,23.99,0,18.83,0,42.67h-27.9c1.16-12.22-7.84-22.92-19.76-24.18c-12.27-1.29-23.14,7.67-24.42,19.75l-0.47,4.44h-38.46 c-11.34,24.49-35.83,40.31-62.95,40.31c-27.5,0-51.77-16.17-62.95-40.31H154.7l-0.47-4.44c-1.29-12.17-12.26-21.03-24.42-19.75 c-11.91,1.26-20.93,11.95-19.76,24.19H82.07c0-23.84,0-18.69,0-42.67c0-4.41-3.58-7.99-7.99-7.99H52.25 c-4.41,0-7.99,3.58-7.99,7.99c0,23.99,0,18.83,0,42.67H31.52c-8.35,0-15.12,6.77-15.12,15.12c0,8.35,6.77,15.12,15.12,15.12 h12.74c0,23.84,0,18.69,0,42.67c0,4.41,3.58,7.99,7.99,7.99h21.83c4.41,0,7.99-3.58,7.99-7.99c0-23.99,0-18.83,0-42.67h31.16 c0.96,9.05,7.72,73.04,8.72,82.5c2.01,18.99,25.93,27.02,38.81,12.28l31.21-35.72v84.97l-80.76,32.81 c-9.43,3.83-16.14,12.34-17.68,22.4L77.43,446.4c-2.41,15.77,8.43,30.5,24.19,32.9s30.5-8.43,32.9-24.19l13.64-89.4l74.71-30.35 h66.32l74.71,30.35l13.64,89.4c2.41,15.77,17.13,26.6,32.9,24.19c15.77-2.41,26.6-17.13,24.19-32.9L418.5,340.77 c-1.53-10.06-8.25-18.57-17.68-22.4l-81.4-33.07v-85.47l31.87,36.48c12.53,14.34,36.74,7.24,38.81-12.28 c1-9.45,7.77-73.47,8.73-82.5h31.09c0,23.84,0,18.69,0,42.67c0,4.41,3.58,7.99,7.99,7.99h21.83c4.41,0,7.99-3.58,7.99-7.99 c0-23.99,0-18.83,0-42.67h12.74c8.35,0,15.12-6.77,15.12-15.12C495.6,118.06,488.83,111.29,480.48,111.29z M160.78,168.8 c-1.2-11.32-1.7-16.06-2.88-27.26h26.71C174.92,152.61,170.59,157.57,160.78,168.8z M351.29,168.8 c-11.04-12.63,3.14,3.59-23.82-27.26h26.71C351.93,162.7,352.49,157.49,351.29,168.8z"></path> </g> </g> <g> <g> <circle cx="255.96" cy="82.24" r="49.87"></circle> </g> </g> </g> </svg> 